<?xml version="1.0" encoding="utf-8"?>
<!-- Generator: Adobe Illustrator 18.0.0, SVG Export Plug-In . SVG Version: 6.00 Build 0)  -->
<!DOCTYPE svg PUBLIC "-//W3C//DTD SVG 1.1//EN" "http://www.w3.org/Graphics/SVG/1.1/DTD/svg11.dtd">
<svg version="1.1" id="Layer_1" xmlns="http://www.w3.org/2000/svg" xmlns:xlink="http://www.w3.org/1999/xlink" x="0px" y="0px"
	 viewBox="0 0 34 33" enable-background="new 0 0 34 33" xml:space="preserve">
<g>
	<g>
		<path fill="#FFFFFF" d="M27.68,25.794H7.152c-0.553,0-1-0.448-1-1V8.462c0-0.552,0.447-1,1-1H27.68c0.553,0,1,0.448,1,1v16.332
			C28.68,25.346,28.232,25.794,27.68,25.794L27.68,25.794z M8.152,23.794H26.68V9.462H8.152V23.794L8.152,23.794z"/>
	</g>
	<g>
		<g>
			<path fill="#FFFFFF" d="M23.791,11.128c-0.553,0-1-0.448-1-1V6.795c0-0.552,0.447-1,1-1c0.553,0,1,0.448,1,1v3.333
				C24.791,10.68,24.344,11.128,23.791,11.128L23.791,11.128z"/>
		</g>
		<g>
			<path fill="#FFFFFF" d="M11.041,11.128c-0.553,0-1-0.448-1-1V6.795c0-0.552,0.447-1,1-1c0.553,0,1,0.448,1,1v3.333
				C12.041,10.68,11.594,11.128,11.041,11.128L11.041,11.128z"/>
		</g>
	</g>
	<g>
		<path fill="#FFFFFF" d="M27.582,14.364H7.25c-0.277,0-0.5-0.224-0.5-0.5c0-0.276,0.223-0.5,0.5-0.5h20.332
			c0.277,0,0.5,0.224,0.5,0.5C28.082,14.141,27.859,14.364,27.582,14.364L27.582,14.364z"/>
	</g>
	<g>
		<path fill="#FFFFFF" d="M14.096,21.242h2.512c0.25,0,0.441,0.051,0.572,0.153c0.131,0.102,0.197,0.242,0.197,0.419
			c0,0.157-0.053,0.29-0.156,0.399c-0.103,0.108-0.262,0.163-0.475,0.163h-3.539c-0.24,0-0.428-0.066-0.563-0.199
			c-0.135-0.134-0.203-0.29-0.203-0.47c0-0.115,0.043-0.268,0.131-0.459c0.086-0.19,0.18-0.341,0.283-0.45
			c0.426-0.442,0.811-0.821,1.154-1.137c0.344-0.316,0.588-0.523,0.736-0.623c0.262-0.187,0.481-0.373,0.656-0.561
			c0.174-0.188,0.309-0.38,0.399-0.577c0.092-0.197,0.139-0.391,0.139-0.58c0-0.205-0.049-0.389-0.148-0.551
			c-0.098-0.161-0.231-0.287-0.398-0.377c-0.168-0.09-0.352-0.135-0.551-0.135c-0.42,0-0.75,0.185-0.99,0.553
			c-0.033,0.048-0.086,0.18-0.162,0.395c-0.074,0.215-0.16,0.38-0.254,0.495c-0.096,0.116-0.234,0.174-0.416,0.174
			c-0.16,0-0.295-0.053-0.4-0.159c-0.105-0.105-0.158-0.25-0.158-0.433c0-0.222,0.049-0.452,0.149-0.692
			c0.1-0.241,0.248-0.459,0.445-0.654c0.197-0.195,0.447-0.354,0.75-0.474c0.305-0.121,0.658-0.181,1.066-0.181
			c0.49,0,0.908,0.077,1.256,0.231c0.225,0.102,0.422,0.244,0.592,0.424c0.17,0.18,0.301,0.387,0.396,0.623
			c0.094,0.235,0.141,0.479,0.141,0.733c0,0.397-0.098,0.759-0.295,1.084c-0.197,0.326-0.398,0.581-0.603,0.766
			c-0.205,0.184-0.549,0.474-1.031,0.868c-0.484,0.395-0.814,0.7-0.994,0.918C14.256,21.016,14.176,21.12,14.096,21.242z"/>
		<path fill="#FFFFFF" d="M20.709,21.766v-0.895h-2.416c-0.305,0-0.533-0.068-0.686-0.206c-0.152-0.139-0.229-0.326-0.229-0.563
			c0-0.061,0.012-0.122,0.035-0.185c0.021-0.062,0.055-0.129,0.1-0.197c0.045-0.069,0.092-0.136,0.141-0.2
			c0.047-0.063,0.107-0.143,0.178-0.235l2.549-3.41c0.168-0.225,0.305-0.388,0.412-0.488c0.107-0.102,0.236-0.151,0.387-0.151
			c0.488,0,0.73,0.278,0.73,0.837v3.723h0.207c0.248,0,0.445,0.033,0.594,0.101c0.15,0.067,0.225,0.215,0.225,0.443
			c0,0.185-0.06,0.321-0.183,0.406c-0.121,0.085-0.305,0.127-0.547,0.127H21.91v0.895c0,0.247-0.055,0.431-0.162,0.551
			c-0.109,0.121-0.256,0.181-0.438,0.181c-0.18,0-0.326-0.062-0.435-0.185C20.764,22.189,20.709,22.007,20.709,21.766z
			 M18.641,19.794h2.068v-2.795L18.641,19.794z"/>
	</g>
</g>
</svg>
