<?xml version="1.0" encoding="utf-8"?>
<!-- Generator: Adobe Illustrator 16.0.4, SVG Export Plug-In . SVG Version: 6.00 Build 0)  -->
<!DOCTYPE svg PUBLIC "-//W3C//DTD SVG 1.1//EN" "http://www.w3.org/Graphics/SVG/1.1/DTD/svg11.dtd">
<svg version="1.1" id="Layer_1" xmlns="http://www.w3.org/2000/svg" xmlns:xlink="http://www.w3.org/1999/xlink" x="0px" y="0px"
	 width="30px" height="30px" viewBox="0 0 30 30" enable-background="new 0 0 30 30" xml:space="preserve">
<g>
	<g>
		<g>
			<path fill="#FFFFFF" d="M13.125,24.855c-0.223,0-0.443-0.074-0.625-0.22L7.92,20.97H5.098c-0.553,0-1-0.447-1-1v-8.846
				c0-0.553,0.447-1,1-1h2.82L12.5,6.455c0.301-0.242,0.713-0.288,1.059-0.121c0.346,0.166,0.566,0.517,0.566,0.901v16.62
				c0,0.385-0.221,0.735-0.566,0.901C13.42,24.823,13.273,24.855,13.125,24.855L13.125,24.855z M6.098,18.97h2.174
				c0.227,0,0.447,0.077,0.625,0.22l3.229,2.585V9.316l-3.232,2.588c-0.178,0.143-0.396,0.22-0.625,0.22h-2.17V18.97L6.098,18.97z"
				/>
		</g>
	</g>
	<g>
		<g>
			<path fill="#FFFFFF" d="M25.264,20.788c-0.256,0-0.512-0.098-0.707-0.293l-8.486-8.486c-0.391-0.391-0.391-1.023,0-1.414
				s1.023-0.391,1.414,0l8.486,8.486c0.391,0.391,0.391,1.023,0,1.414C25.775,20.69,25.52,20.788,25.264,20.788L25.264,20.788z"/>
		</g>
		<g>
			<path fill="#FFFFFF" d="M16.836,20.847c-0.25,0-0.502-0.094-0.697-0.283c-0.395-0.385-0.404-1.019-0.02-1.414l8.369-8.604
				c0.387-0.395,1.02-0.405,1.414-0.02c0.396,0.385,0.404,1.019,0.02,1.414l-8.369,8.604C17.357,20.745,17.098,20.847,16.836,20.847
				L16.836,20.847z"/>
		</g>
	</g>
</g>
</svg>
