<?xml version="1.0" encoding="utf-8"?>
<!-- Generator: Adobe Illustrator 18.0.0, SVG Export Plug-In . SVG Version: 6.00 Build 0)  -->
<!DOCTYPE svg PUBLIC "-//W3C//DTD SVG 1.1//EN" "http://www.w3.org/Graphics/SVG/1.1/DTD/svg11.dtd">
<svg version="1.1" id="Layer_1" xmlns="http://www.w3.org/2000/svg" xmlns:xlink="http://www.w3.org/1999/xlink" x="0px" y="0px"
	 viewBox="0 0 34 33" enable-background="new 0 0 34 33" xml:space="preserve">
<g>
	<g>
		<path fill="#FFFFFF" d="M21.187,26.115c-3.168,0-6.444-1.668-8.987-4.574l-0.051-0.062c-2.618-2.989-4.076-6.833-3.998-10.54
			l0.006-0.272l0.147-0.213c0.228-0.331,0.453-0.623,0.688-0.893c0.864-0.986,1.879-1.741,3.017-2.245
			c0.138-0.061,0.295-0.093,0.464-0.093c0.384,0,1.248,0.224,1.466,0.916c0.388,1.228,0.878,2.835,1.235,4.377
			c0.103,0.446-0.018,1.49-0.527,1.856l-1.258,0.912c0.011,0.01,0.007,0.235,0.171,0.492c0.485,0.761,1.051,1.518,1.679,2.249
			c0.63,0.708,1.29,1.351,1.954,1.902c0.129,0.108,0.275,0.171,0.393,0.171c0.04,0,0.065-0.008,0.071-0.011l0.766-1.405
			c0.346-0.618,1.22-0.635,1.319-0.635c0.103,0,0.193,0.01,0.276,0.032c1.657,0.422,2.643,0.786,3.909,1.441
			c0.56,0.291,0.916,1.455,0.666,2.185c-0.439,1.298-1.099,2.458-1.961,3.443c-0.24,0.274-0.504,0.539-0.785,0.79l-0.185,0.166
			L21.187,26.115L21.187,26.115z M9.571,11.25c0.011,3.141,1.34,6.517,3.585,9.084l0.07,0.081c2.251,2.571,5.146,4.062,7.929,4.074
			c0.167-0.16,0.325-0.324,0.473-0.49c0.718-0.823,1.272-1.794,1.64-2.882c-0.008-0.006-0.036-0.106-0.067-0.186
			c-1.101-0.56-2.005-0.885-3.494-1.265c-0.036,0.006-0.108,0.022-0.167,0.04l-0.714,1.289c-0.446,0.825-1.626,0.955-2.472,0.247
			c-0.718-0.596-1.433-1.292-2.121-2.065c-0.685-0.797-1.297-1.615-1.822-2.44c-0.349-0.545-0.492-1.194-0.392-1.778
			c0.078-0.452,0.296-0.825,0.614-1.051l1.126-0.816c0.017-0.075,0.031-0.175,0.028-0.224c-0.313-1.337-0.756-2.804-1.121-3.97
			c-0.061-0.025-0.139-0.047-0.193-0.047c-0.903,0.405-1.752,1.037-2.475,1.861C9.855,10.878,9.713,11.055,9.571,11.25L9.571,11.25z
			"/>
	</g>
	<g>
		<g>
			<path fill="#FFFFFF" d="M22.333,14.86c-0.372,0-0.685-0.33-0.71-0.761l-0.183-3.288l-2.877-0.21
				c-0.392-0.029-0.689-0.415-0.664-0.863c0.025-0.448,0.365-0.777,0.755-0.76l3.501,0.256c0.357,0.026,0.642,0.351,0.666,0.759
				l0.224,4.002c0.025,0.448-0.272,0.835-0.664,0.863C22.363,14.859,22.348,14.86,22.333,14.86L22.333,14.86z"/>
		</g>
		<g>
			<path fill="#FFFFFF" d="M17.851,15.723c-0.182,0-0.364-0.079-0.503-0.238c-0.278-0.318-0.278-0.832,0-1.15l3.942-4.506
				c0.278-0.318,0.728-0.318,1.006,0c0.278,0.318,0.278,0.832,0,1.15l-3.942,4.506C18.215,15.644,18.033,15.723,17.851,15.723
				L17.851,15.723z"/>
		</g>
	</g>
</g>
</svg>
