<?xml version="1.0" encoding="utf-8"?>
<!-- Generator: Adobe Illustrator 18.0.0, SVG Export Plug-In . SVG Version: 6.00 Build 0)  -->
<!DOCTYPE svg PUBLIC "-//W3C//DTD SVG 1.1//EN" "http://www.w3.org/Graphics/SVG/1.1/DTD/svg11.dtd">
<svg version="1.1" id="Layer_1" xmlns="http://www.w3.org/2000/svg" xmlns:xlink="http://www.w3.org/1999/xlink" x="0px" y="0px"
	 viewBox="0 0 34 33" enable-background="new 0 0 34 33" xml:space="preserve">
<g>
	<g>
		<path fill="#FFFFFF" d="M26.083,24.799H7.919c-1.301,0-2.359-1.058-2.359-2.358V10.558c0-1.3,1.059-2.357,2.359-2.357h18.164
			c1.299,0,2.357,1.058,2.357,2.357v11.883C28.44,23.742,27.382,24.799,26.083,24.799L26.083,24.799z M7.919,10.201
			c-0.197,0-0.359,0.16-0.359,0.357v11.883c0,0.197,0.162,0.358,0.359,0.358h18.164c0.197,0,0.357-0.161,0.357-0.358V10.558
			c0-0.197-0.16-0.357-0.357-0.357H7.919L7.919,10.201z"/>
	</g>
	<g>
		<path fill="#FFFFFF" d="M26.083,24.299H7.919c-0.766,0-1.461-0.482-1.734-1.2c-0.074-0.194-0.02-0.413,0.135-0.551l7.09-6.322
			c0.205-0.184,0.522-0.166,0.705,0.04c0.184,0.206,0.166,0.522-0.039,0.706L7.29,23.021c0.16,0.174,0.387,0.278,0.629,0.278h18.164
			c0.24,0,0.467-0.104,0.627-0.277l-6.863-6.12c-0.205-0.184-0.223-0.5-0.039-0.706c0.182-0.206,0.498-0.225,0.705-0.04l7.168,6.393
			c0.154,0.138,0.209,0.356,0.135,0.55C27.544,23.817,26.849,24.299,26.083,24.299L26.083,24.299z"/>
	</g>
	<g>
		<path fill="#FFFFFF" d="M17.001,19.806c-0.119,0-0.238-0.042-0.334-0.127L6.319,10.452c-0.154-0.138-0.209-0.356-0.135-0.551
			c0.273-0.718,0.969-1.2,1.734-1.2h18.164c0.766,0,1.461,0.482,1.732,1.201c0.074,0.193,0.02,0.412-0.135,0.55l-10.348,9.228
			C17.239,19.764,17.12,19.806,17.001,19.806L17.001,19.806z M7.292,9.979l9.709,8.657l9.709-8.658
			c-0.16-0.173-0.387-0.277-0.627-0.277H7.919C7.677,9.701,7.45,9.805,7.292,9.979L7.292,9.979z"/>
	</g>
</g>
</svg>
