<?xml version="1.0" encoding="utf-8"?>
<!-- Generator: Adobe Illustrator 16.0.4, SVG Export Plug-In . SVG Version: 6.00 Build 0)  -->
<!DOCTYPE svg PUBLIC "-//W3C//DTD SVG 1.1//EN" "http://www.w3.org/Graphics/SVG/1.1/DTD/svg11.dtd">
<svg version="1.1" id="Layer_1" xmlns="http://www.w3.org/2000/svg" xmlns:xlink="http://www.w3.org/1999/xlink" x="0px" y="0px"
	 width="30px" height="30px" viewBox="0 0 30 30" enable-background="new 0 0 30 30" xml:space="preserve">
<g>
	<g>
		<path fill="#FFFFFF" d="M20.312,27.352c-0.256,0-0.512-0.098-0.707-0.293c-0.391-0.391-0.391-1.023,0-1.414
			c5.566-5.568,5.566-14.63,0-20.198c-0.391-0.391-0.391-1.023,0-1.414s1.023-0.391,1.414,0c6.348,6.349,6.348,16.678,0,23.026
			C20.824,27.254,20.568,27.352,20.312,27.352L20.312,27.352z"/>
	</g>
	<g>
		<path fill="#FFFFFF" d="M17.637,24.679c-0.256,0-0.512-0.098-0.707-0.293c-0.391-0.391-0.391-1.023,0-1.414
			c4.096-4.095,4.096-10.757,0-14.852c-0.391-0.391-0.391-1.023,0-1.414s1.023-0.391,1.414,0c4.875,4.874,4.875,12.806,0,17.68
			C18.148,24.581,17.893,24.679,17.637,24.679L17.637,24.679z"/>
	</g>
	<g>
		<path fill="#FFFFFF" d="M14.74,21.782c-0.256,0-0.512-0.098-0.707-0.293c-0.391-0.391-0.391-1.023,0-1.414
			c1.211-1.21,1.877-2.818,1.877-4.529s-0.666-3.319-1.877-4.528c-0.391-0.391-0.391-1.023,0-1.414s1.023-0.391,1.414,0
			c1.588,1.587,2.463,3.697,2.463,5.942s-0.875,4.355-2.463,5.943C15.252,21.685,14.996,21.782,14.74,21.782L14.74,21.782z"/>
	</g>
	<g>
		<g>
			<path fill="#FFFFFF" d="M11.088,24.855c-0.223,0-0.443-0.074-0.625-0.22l-4.58-3.666H3.061c-0.553,0-1-0.447-1-1v-8.846
				c0-0.553,0.447-1,1-1h2.82l4.582-3.669c0.301-0.242,0.713-0.288,1.059-0.121c0.346,0.166,0.566,0.517,0.566,0.901v16.62
				c0,0.385-0.221,0.735-0.566,0.901C11.383,24.823,11.236,24.855,11.088,24.855L11.088,24.855z M4.061,18.97h2.174
				c0.227,0,0.447,0.077,0.625,0.22l3.229,2.585V9.316l-3.232,2.588c-0.178,0.143-0.396,0.22-0.625,0.22h-2.17V18.97L4.061,18.97z"
				/>
		</g>
	</g>
</g>
</svg>
