<?xml version="1.0" encoding="utf-8"?>
<!-- Generator: Adobe Illustrator 18.0.0, SVG Export Plug-In . SVG Version: 6.00 Build 0)  -->
<!DOCTYPE svg PUBLIC "-//W3C//DTD SVG 1.1//EN" "http://www.w3.org/Graphics/SVG/1.1/DTD/svg11.dtd">
<svg version="1.1" id="Layer_1" xmlns="http://www.w3.org/2000/svg" xmlns:xlink="http://www.w3.org/1999/xlink" x="0px" y="0px"
	 viewBox="0 0 34 33" enable-background="new 0 0 34 33" xml:space="preserve">
<g>
	<g>
		<g>
			<path fill="#FFFFFF" d="M16.997,22.648c-0.205,0-0.412-0.063-0.588-0.191l-7.033-5.117c-0.447-0.325-0.545-0.95-0.221-1.397
				c0.324-0.447,0.951-0.546,1.396-0.221l6.445,4.689l6.447-4.689c0.445-0.325,1.072-0.227,1.396,0.221
				c0.326,0.446,0.226,1.071-0.221,1.397l-7.035,5.117C17.411,22.584,17.204,22.648,16.997,22.648L16.997,22.648z"/>
		</g>
		<g>
			<path fill="#FFFFFF" d="M16.997,22.648c-0.553,0-1-0.447-1-1V6.07c0-0.553,0.447-1,1-1c0.553,0,1,0.447,1,1v15.578
				C17.997,22.201,17.55,22.648,16.997,22.648L16.997,22.648z"/>
		</g>
	</g>
	<g>
		<path fill="#FFFFFF" d="M25.739,27.93H8.261c-0.553,0-1-0.447-1-1c0-0.553,0.447-1,1-1h17.479c0.553,0,1,0.447,1,1
			C26.739,27.483,26.292,27.93,25.739,27.93L25.739,27.93z"/>
	</g>
	<g>
		<path fill="#FFFFFF" d="M25.739,27.93c-0.553,0-1-0.447-1-1v-4.421c0-0.553,0.447-1,1-1c0.553,0,1,0.447,1,1v4.421
			C26.739,27.483,26.292,27.93,25.739,27.93L25.739,27.93z"/>
	</g>
	<g>
		<path fill="#FFFFFF" d="M8.261,27.93c-0.553,0-1-0.447-1-1v-4.421c0-0.553,0.447-1,1-1s1,0.447,1,1v4.421
			C9.261,27.483,8.813,27.93,8.261,27.93L8.261,27.93z"/>
	</g>
</g>
</svg>
