<?xml version="1.0" encoding="utf-8"?>
<!-- Generator: Adobe Illustrator 18.0.0, SVG Export Plug-In . SVG Version: 6.00 Build 0)  -->
<!DOCTYPE svg PUBLIC "-//W3C//DTD SVG 1.1//EN" "http://www.w3.org/Graphics/SVG/1.1/DTD/svg11.dtd">
<svg version="1.1" id="Layer_1" xmlns="http://www.w3.org/2000/svg" xmlns:xlink="http://www.w3.org/1999/xlink" x="0px" y="0px"
	 viewBox="0 0 43 43" enable-background="new 0 0 43 43" xml:space="preserve">
<path d="M10.108,6.173h22.785c2.164,0,3.934,1.77,3.934,3.935v22.785c0,2.164-1.77,3.933-3.934,3.933H10.108
	c-2.165,0-3.936-1.769-3.936-3.933V10.108C6.172,7.943,7.943,6.173,10.108,6.173z M28.505,9.578c-0.761,0-1.381,0.622-1.381,1.382
	v3.302c0,0.76,0.62,1.381,1.381,1.381h3.464c0.759,0,1.38-0.621,1.38-1.381V10.96c0-0.76-0.621-1.382-1.38-1.382H28.505z
	 M33.362,19.136h-2.697c0.256,0.835,0.394,1.716,0.394,2.632c0,5.097-4.267,9.232-9.53,9.232C16.267,31,12,26.866,12,21.768
	c0-0.916,0.14-1.797,0.394-2.632H9.58v12.95c0,0.671,0.547,1.216,1.217,1.216h21.347c0.671,0,1.217-0.546,1.217-1.216V19.136z
	 M21.529,15.469c-3.399,0-6.156,2.67-6.156,5.966c0,3.293,2.757,5.965,6.156,5.965c3.401,0,6.157-2.672,6.157-5.965
	C27.686,18.139,24.93,15.469,21.529,15.469z"/>
</svg>
