<?xml version="1.0" encoding="utf-8"?>
<!-- Generator: Adobe Illustrator 16.0.4, SVG Export Plug-In . SVG Version: 6.00 Build 0)  -->
<!DOCTYPE svg PUBLIC "-//W3C//DTD SVG 1.1//EN" "http://www.w3.org/Graphics/SVG/1.1/DTD/svg11.dtd">
<svg version="1.1" id="Layer_1" xmlns="http://www.w3.org/2000/svg" xmlns:xlink="http://www.w3.org/1999/xlink" x="0px" y="0px"
	 width="612px" height="168.266px" viewBox="0 0 612 168.266" enable-background="new 0 0 612 168.266" xml:space="preserve">
<g>
	<path fill="#FFFFFF" d="M49.512,122.537V49.919h6.437v67.188h24.037v5.43H49.512z"/>
	<path fill="#FFFFFF" d="M119.939,48.51c21.727,0,21.928,18.104,21.928,37.718s-0.201,37.717-21.928,37.717
		c-21.723,0-21.924-18.103-21.924-37.717S98.216,48.51,119.939,48.51z M119.939,118.516c15.29,0,15.491-12.977,15.491-32.288
		c0-19.312-0.201-32.288-15.491-32.288c-15.286,0-15.487,12.977-15.487,32.288C104.452,105.539,104.653,118.516,119.939,118.516z"/>
	<path fill="#FFFFFF" d="M164.834,49.919h30.679v5.43h-24.242v27.157h22.53v5.43h-22.53v34.602h-6.437V49.919z"/>
	<path fill="#FFFFFF" d="M226.318,55.349h-17.702v-5.43h41.841v5.43h-17.702v67.188h-6.438V55.349z"/>
	<path fill="#FFFFFF" d="M299.973,68.325c-0.201-8.951-2.416-14.385-12.272-14.385c-7.846,0-12.772,2.719-12.772,11.265
		c0,10.765,5.43,11.064,13.677,16.998c8.952,6.437,18.104,8.35,18.104,22.432c0,12.972-6.638,19.311-19.312,19.311
		c-14.18,0-20.515-7.645-19.913-21.825h6.638c0,8.046,0.602,16.396,13.579,16.396c8.448,0,12.571-4.529,12.571-12.874
		c0-9.86-6.536-12.674-16.998-19.111c-14.083-8.652-14.684-12.977-14.783-20.216c-0.102-12.575,7.842-17.804,19.713-17.804
		c15.085,0,18.304,9.353,18.304,19.815H299.973z"/>
	<path fill="#FFFFFF" d="M382.692,48.51c21.728,0,21.928,18.104,21.928,37.718s-0.2,37.717-21.928,37.717
		c-21.724,0-21.924-18.103-21.924-37.717S360.969,48.51,382.692,48.51z M382.692,118.516c15.29,0,15.49-12.977,15.49-32.288
		c0-19.312-0.2-32.288-15.49-32.288c-15.286,0-15.486,12.977-15.486,32.288C367.206,105.539,367.406,118.516,382.692,118.516z"/>
	<path fill="#FFFFFF" d="M428.493,122.537V49.919h9.856l29.471,63.765l0.2-0.2V49.919h6.438v72.618h-9.754l-29.573-64.474
		l-0.201,0.205v64.269H428.493z"/>
	<path fill="#FFFFFF" d="M529.029,72.85c0-12.268,3.521-21.522,17.604-21.522c17.702,0,18.305,10.257,18.305,27.157v8.648
		c0,25.548-0.401,36.51-17.805,36.51c-11.765,0-16.998-4.828-17.297-16.695h6.438c-0.103,6.941,2.715,11.265,10.057,11.265
		c12.771,0,12.067-7.748,12.571-29.471h-0.2c-3.019,4.324-7.846,6.134-12.875,6.134C533.354,94.876,529.029,87.735,529.029,72.85z
		 M558.5,73.657c0-8.75-0.103-16.899-11.666-16.899c-9.959,0-11.367,8.046-11.367,16.093c0,7.743,1.208,16.596,10.962,16.596
		C558.099,89.446,558.5,78.28,558.5,73.657z"/>
</g>
</svg>
